<svg width="20" height="20" viewBox="0 0 20 20" fill="none" xmlns="http://www.w3.org/2000/svg">
<rect width="20" height="20" rx="4" fill="#B5C3A6"/>
<path d="M12.7847 7.56511H14.176C14.176 5.59153 12.2595 4.69135 10.6977 4.48404V3.04333H9.30642V4.48404C7.74466 4.69135 5.82812 5.59153 5.82812 7.56511C5.82812 9.44757 7.68275 10.4264 9.30642 10.6469V14.1043C8.2991 13.9297 7.21944 13.3919 7.21944 12.4347H5.82812C5.82812 14.2358 7.5151 15.3001 9.30642 15.5207V16.9565H10.6977V15.5165C12.2595 15.3092 14.176 14.4083 14.176 12.4347C14.176 10.4611 12.2595 9.56096 10.6977 9.35365V5.89553C11.623 6.0618 12.7847 6.55015 12.7847 7.56511ZM7.21944 7.56511C7.21944 6.55015 8.38119 6.0618 9.30642 5.89553V9.234C8.35267 9.058 7.21944 8.53695 7.21944 7.56511ZM12.7847 12.4347C12.7847 13.4497 11.623 13.938 10.6977 14.1043V10.7651C11.623 10.9314 12.7847 11.4198 12.7847 12.4347Z" fill="#5A7940"/>
</svg>
