<svg width="24" height="24" viewBox="0 0 24 24" fill="none" xmlns="http://www.w3.org/2000/svg">
<path d="M12.0021 2.84949C17.0558 2.84949 21.1526 6.94631 21.1526 12C21.1526 17.0537 17.0558 21.1505 12.0021 21.1505C6.94838 21.1505 2.85156 17.0537 2.85156 12C2.85156 6.94631 6.94838 2.84949 12.0021 2.84949Z" stroke="white" stroke-width="1.69905" stroke-linecap="round"/>
<path d="M11.0811 14.7452L9.25099 12.9151C8.74562 12.4097 8.74562 11.5903 9.25099 11.0849L11.0811 9.25485C11.5865 8.74948 12.4058 8.74948 12.9112 9.25485L14.7413 11.0849C15.2467 11.5903 15.2467 12.4097 14.7413 12.9151L12.9112 14.7452C12.4058 15.2505 11.5865 15.2505 11.0811 14.7452Z" stroke="#FF74F9" stroke-width="1.69905" stroke-linecap="round"/>
</svg>
