<svg width="436" height="40" viewBox="0 0 436 40" fill="none" xmlns="http://www.w3.org/2000/svg">
<path d="M2 30.7L6.5 29.1555C11 27.611 20 24.522 29 26.0827C38 27.6435 47 33.8538 56 36.5023C65 39.1507 74 38.2373 83 34.1536C92 30.0699 101 22.8161 110 19.5722C119 16.3284 128 17.0946 137 16.0201C146 14.9456 155 12.0304 164 14.855C173 17.6796 182 26.244 191 25.7723C200 25.3006 209 15.7927 218 10.8061C227 5.81956 236 5.35426 245 8.50287C254 11.6515 263 18.414 272 22.9382C281 27.4624 290 29.7482 299 25.3162C308 20.8841 317 9.73418 326 5.05265C335 0.371127 344 2.15801 353 3.36109C362 4.56418 371 5.18346 380 8.6703C389 12.1571 398 18.5115 407 20.1051C416 21.6987 425 18.5315 429.5 16.9479L434 15.3642" stroke="#8CA573" stroke-width="4" stroke-linecap="round"/>
</svg>
