<svg width="106" height="32" viewBox="0 0 106 32" fill="none" xmlns="http://www.w3.org/2000/svg">
<path fill-rule="evenodd" clip-rule="evenodd" d="M30.4 16C31.2837 16 32.0083 15.2818 31.9201 14.4026C31.5887 11.0994 30.2357 7.96625 28.0295 5.45051C25.4701 2.53207 21.937 0.643589 18.0884 0.136921C14.2399 -0.369747 10.3384 0.53995 7.11089 2.69652C3.88335 4.8531 1.54987 8.10947 0.545205 11.8589C-0.459462 15.6084 -0.0667929 19.5952 1.65005 23.0767C3.3669 26.5581 6.29083 29.2966 9.87708 30.7821C13.4633 32.2676 17.4673 32.3987 21.143 31.1509C24.3116 30.0753 27.0499 28.0384 28.9885 25.3435C29.5045 24.6262 29.236 23.6419 28.4708 23.2C27.7055 22.7582 26.7345 23.028 26.2007 23.7322C24.6633 25.7605 22.5474 27.2949 20.1144 28.1207C17.1739 29.1189 13.9707 29.0141 11.1017 27.8257C8.23267 26.6373 5.89352 24.4465 4.52005 21.6613C3.14657 18.8762 2.83243 15.6867 3.63617 12.6872C4.4399 9.68758 6.30669 7.08249 8.88872 5.35723C11.4708 3.63197 14.5919 2.90421 17.6708 3.30954C20.7496 3.71488 23.576 5.22566 25.6236 7.56041C27.3176 9.49211 28.3829 11.8789 28.7002 14.4041C28.8103 15.2809 29.5164 16 30.4 16ZM16 25.35C16 26.2613 16.7428 27.0127 17.6439 26.8765C19.2354 26.636 20.7618 26.0479 22.1113 25.1462C23.9202 23.9375 25.3301 22.2195 26.1627 20.2096C26.9953 18.1996 27.2131 15.9878 26.7887 13.854C26.3642 11.7203 25.3166 9.76024 23.7782 8.22187C22.2398 6.68349 20.2798 5.63584 18.146 5.2114C16.0122 4.78696 13.8005 5.0048 11.7905 5.83736C9.78051 6.66993 8.06255 8.07982 6.85385 9.88877C5.95215 11.2383 5.36409 12.7646 5.12353 14.3562C4.98735 15.2572 5.73875 16 6.65002 16C7.56129 16 8.28234 15.253 8.47613 14.3626C8.68026 13.4247 9.05903 12.5283 9.5977 11.7221C10.4438 10.4559 11.6464 9.46896 13.0534 8.88617C14.4603 8.30337 16.0086 8.15089 17.5022 8.44799C18.9959 8.7451 20.3679 9.47845 21.4447 10.5553C22.5216 11.6322 23.255 13.0042 23.5521 14.4978C23.8492 15.9915 23.6967 17.5397 23.1139 18.9467C22.5311 20.3537 21.5442 21.5563 20.2779 22.4024C19.4717 22.941 18.5754 23.3198 17.6374 23.5239C16.747 23.7177 16 24.4388 16 25.35ZM16 22C19.3137 22 22 19.3137 22 16C22 12.6863 19.3137 10 16 10C12.6863 10 10 12.6863 10 16C10 19.3137 12.6863 22 16 22ZM16 19C14.3432 19 13 17.6569 13 16C13 14.3432 14.3432 13 16 13C17.6569 13 19 14.3432 19 16C19 17.6569 17.6569 19 16 19Z" fill="white"/>
<path d="M45.92 9.22C47.1733 9.22 48.2067 9.37333 49.02 9.68C49.8333 9.98667 50.44 10.4533 50.84 11.08C51.24 11.6933 51.44 12.4733 51.44 13.42C51.44 14.1133 51.3067 14.7067 51.04 15.2C50.7867 15.6933 50.4533 16.1067 50.04 16.44C49.6267 16.76 49.18 17.02 48.7 17.22L52.8 23.5H49.92L46.5 17.86H44.42V23.5H41.86V9.22H45.92ZM45.76 11.36H44.42V15.76H45.84C46.5467 15.76 47.12 15.6733 47.56 15.5C48 15.3267 48.32 15.0733 48.52 14.74C48.7333 14.4067 48.84 13.9933 48.84 13.5C48.84 12.98 48.7267 12.5667 48.5 12.26C48.2733 11.94 47.9333 11.7133 47.48 11.58C47.04 11.4333 46.4667 11.36 45.76 11.36ZM58.8697 12.46C60.2697 12.46 61.3297 12.7667 62.0497 13.38C62.783 13.98 63.1497 14.9267 63.1497 16.22V23.5H61.3697L60.8697 22H60.7897C60.483 22.3867 60.163 22.7133 59.8297 22.98C59.5097 23.2333 59.1364 23.4133 58.7097 23.52C58.2964 23.64 57.7897 23.7 57.1897 23.7C56.5497 23.7 55.9697 23.58 55.4497 23.34C54.943 23.1 54.543 22.7333 54.2497 22.24C53.9564 21.7333 53.8097 21.1 53.8097 20.34C53.8097 19.22 54.2164 18.38 55.0297 17.82C55.8564 17.2467 57.103 16.9333 58.7697 16.88L60.6497 16.82V16.28C60.6497 15.5867 60.483 15.0933 60.1497 14.8C59.8164 14.5067 59.3497 14.36 58.7497 14.36C58.203 14.36 57.6764 14.44 57.1697 14.6C56.663 14.76 56.1697 14.9467 55.6897 15.16L54.8897 13.4C55.423 13.12 56.0297 12.8933 56.7097 12.72C57.403 12.5467 58.123 12.46 58.8697 12.46ZM59.3297 18.42C58.223 18.46 57.4564 18.6533 57.0297 19C56.603 19.3333 56.3897 19.7867 56.3897 20.36C56.3897 20.8667 56.543 21.2333 56.8497 21.46C57.1564 21.6867 57.5497 21.8 58.0297 21.8C58.763 21.8 59.383 21.5933 59.8897 21.18C60.3964 20.7533 60.6497 20.1267 60.6497 19.3V18.38L59.3297 18.42ZM69.8875 23.7C68.6342 23.7 67.6142 23.2333 66.8275 22.3C66.0542 21.3533 65.6675 19.9533 65.6675 18.1C65.6675 16.2467 66.0608 14.8467 66.8475 13.9C67.6342 12.94 68.6675 12.46 69.9475 12.46C70.4808 12.46 70.9475 12.5333 71.3475 12.68C71.7608 12.8133 72.1142 13 72.4075 13.24C72.7008 13.48 72.9475 13.7467 73.1475 14.04H73.2675C73.2275 13.8533 73.1875 13.5667 73.1475 13.18C73.1075 12.7933 73.0875 12.4333 73.0875 12.1V8.3H75.6075V23.5H73.6475L73.1875 22.08H73.0875C72.8875 22.3733 72.6408 22.6467 72.3475 22.9C72.0542 23.14 71.7075 23.3333 71.3075 23.48C70.9075 23.6267 70.4342 23.7 69.8875 23.7ZM70.6475 21.66C71.5808 21.66 72.2408 21.3933 72.6275 20.86C73.0142 20.3267 73.2075 19.52 73.2075 18.44V18.12C73.2075 16.9467 73.0208 16.0533 72.6475 15.44C72.2875 14.8267 71.6075 14.52 70.6075 14.52C69.8475 14.52 69.2608 14.84 68.8475 15.48C68.4342 16.1067 68.2275 16.9933 68.2275 18.14C68.2275 19.2867 68.4342 20.16 68.8475 20.76C69.2608 21.36 69.8608 21.66 70.6475 21.66ZM81.347 12.66V23.5H78.827V12.66H81.347ZM80.087 8.48C80.4604 8.48 80.787 8.58 81.067 8.78C81.347 8.96667 81.487 9.30667 81.487 9.8C81.487 10.28 81.347 10.6267 81.067 10.84C80.787 11.04 80.4604 11.14 80.087 11.14C79.7004 11.14 79.367 11.04 79.087 10.84C78.8204 10.6267 78.687 10.28 78.687 9.8C78.687 9.30667 78.8204 8.96667 79.087 8.78C79.367 8.58 79.7004 8.48 80.087 8.48ZM94.1892 12.66V23.5H92.2092L91.8692 22.1H91.7492C91.5226 22.4733 91.2292 22.78 90.8692 23.02C90.5092 23.2467 90.1159 23.4133 89.6892 23.52C89.2626 23.64 88.8226 23.7 88.3692 23.7C87.5692 23.7 86.8759 23.56 86.2892 23.28C85.7026 23 85.2559 22.5733 84.9492 22C84.6426 21.4133 84.4892 20.66 84.4892 19.74V12.66H87.0092V19.24C87.0092 20.04 87.1692 20.6467 87.4892 21.06C87.8092 21.46 88.3159 21.66 89.0092 21.66C89.6892 21.66 90.2226 21.52 90.6092 21.24C90.9959 20.9467 91.2692 20.5267 91.4292 19.98C91.5892 19.4333 91.6692 18.76 91.6692 17.96V12.66H94.1892ZM104.781 20.36C104.781 21.08 104.608 21.6933 104.261 22.2C103.915 22.6933 103.401 23.0667 102.721 23.32C102.055 23.5733 101.235 23.7 100.261 23.7C99.5013 23.7 98.8479 23.6467 98.3013 23.54C97.7546 23.4333 97.2346 23.2667 96.7413 23.04V20.9C97.2746 21.1533 97.8679 21.3667 98.5213 21.54C99.1746 21.7133 99.7813 21.8 100.341 21.8C101.035 21.8 101.535 21.6933 101.841 21.48C102.148 21.2667 102.301 20.98 102.301 20.62C102.301 20.4067 102.241 20.2133 102.121 20.04C102.001 19.8667 101.768 19.6867 101.421 19.5C101.075 19.3 100.548 19.0533 99.8413 18.76C99.1479 18.48 98.5679 18.2 98.1013 17.92C97.6479 17.64 97.3013 17.3067 97.0613 16.92C96.8346 16.52 96.7213 16.02 96.7213 15.42C96.7213 14.4467 97.1079 13.7133 97.8813 13.22C98.6546 12.7133 99.6746 12.46 100.941 12.46C101.608 12.46 102.235 12.5267 102.821 12.66C103.421 12.78 104.021 12.98 104.621 13.26L103.821 15.12C103.488 14.9733 103.155 14.8467 102.821 14.74C102.501 14.62 102.175 14.5267 101.841 14.46C101.521 14.3933 101.195 14.36 100.861 14.36C100.315 14.36 99.9013 14.4467 99.6213 14.62C99.3413 14.78 99.2013 15.0067 99.2013 15.3C99.2013 15.5267 99.2679 15.7267 99.4013 15.9C99.5479 16.06 99.7946 16.2267 100.141 16.4C100.501 16.56 101.008 16.7733 101.661 17.04C102.315 17.2933 102.868 17.56 103.321 17.84C103.788 18.1067 104.148 18.44 104.401 18.84C104.655 19.24 104.781 19.7467 104.781 20.36Z" fill="white"/>
</svg>
