<svg width="24" height="24" viewBox="0 0 24 24" fill="none" xmlns="http://www.w3.org/2000/svg">
<path fill-rule="evenodd" clip-rule="evenodd" d="M11.998 11.1567C11.5288 11.1567 11.1484 10.7764 11.1484 10.3072L11.1484 3.90188C11.1484 3.4327 11.5288 3.05236 11.998 3.05236C12.4671 3.05236 12.8475 3.4327 12.8475 3.90188L12.8475 10.3072C12.8475 10.7764 12.4671 11.1567 11.998 11.1567Z" fill="#ADB5BD"/>
<path d="M5.5967 5.46516C4.88284 6.16497 4.28316 6.98083 3.82818 7.8822C3.20345 9.11989 2.85156 10.5188 2.85156 11.9999C2.85156 17.0536 6.94837 21.1504 12.002 21.1504C17.0557 21.1504 21.1525 17.0536 21.1525 11.9999C21.1525 10.5188 20.8006 9.11989 20.1759 7.8822C19.7861 7.10994 19.2901 6.40045 18.707 5.77294" stroke="#ADB5BD" stroke-width="1.69904" stroke-linecap="round"/>
</svg>
