<svg width="24" height="24" viewBox="0 0 24 24" fill="none" xmlns="http://www.w3.org/2000/svg">
<path d="M19.3711 4.48999H4.62457C3.60653 4.48999 2.78125 5.31527 2.78125 6.33331V15.5499C2.78125 16.5679 3.60653 17.3932 4.62457 17.3932H7.38955H7.89502C8.31358 17.3932 8.71969 17.5357 9.04653 17.7971L10.8463 19.237C11.5195 19.7756 12.4761 19.7756 13.1494 19.237L14.9492 17.7971C15.276 17.5357 15.6821 17.3932 16.1007 17.3932H16.6061H19.3711C20.3892 17.3932 21.2144 16.5679 21.2144 15.5499V6.33331C21.2144 5.31527 20.3891 4.48999 19.3711 4.48999Z" stroke="#ADB5BD" stroke-width="1.56682" stroke-linecap="round"/>
<circle cx="9.08806" cy="10.7961" r="1.45525" fill="#ADB5BD"/>
<circle cx="14.9084" cy="10.7961" r="1.45525" fill="#ADB5BD"/>
</svg>
