<svg width="170" height="170" viewBox="0 0 170 170" fill="none" xmlns="http://www.w3.org/2000/svg">
<path d="M170 85C170 131.944 131.944 170 85 170C38.0558 170 0 131.944 0 85C0 38.0558 38.0558 0 85 0C131.944 0 170 38.0558 170 85ZM25.5 85C25.5 117.861 52.1391 144.5 85 144.5C117.861 144.5 144.5 117.861 144.5 85C144.5 52.1391 117.861 25.5 85 25.5C52.1391 25.5 25.5 52.1391 25.5 85Z" fill="#C4CEBA"/>
<path d="M33.9115 33.9115C28.9323 28.9324 20.768 28.8855 16.5888 34.5529C9.75886 43.815 4.85373 54.405 2.22046 65.6985C-1.38209 81.149 -0.588675 97.2994 4.51094 112.322C9.61056 127.345 18.8128 140.641 31.0766 150.706C43.3403 160.77 58.1761 167.202 73.9053 169.273C89.6345 171.344 105.629 168.971 120.08 162.423C134.531 155.876 146.861 145.415 155.675 132.223C164.489 119.032 169.435 103.638 169.954 87.7811C170.334 76.1909 168.337 64.6921 164.137 53.9779C161.567 47.422 153.669 45.3542 147.57 48.875C141.472 52.3958 139.533 60.1806 141.676 66.8881C143.737 73.3362 144.692 80.1188 144.468 86.9468C144.105 98.0463 140.642 108.823 134.472 118.056C128.303 127.29 119.672 134.613 109.556 139.196C99.4405 143.78 88.2441 145.441 77.2337 143.991C66.2233 142.541 55.8382 138.039 47.2536 130.994C38.669 123.949 32.2274 114.642 28.6577 104.126C25.0879 93.6096 24.5325 82.3043 27.0543 71.489C28.6056 64.8358 31.2833 58.5314 34.9425 52.8363C38.749 46.9122 38.8907 38.8907 33.9115 33.9115Z" fill="#A7ABFF"/>
<path d="M136.088 136.088C141.068 141.068 149.232 141.114 153.411 135.447C161.899 123.937 167.388 110.41 169.273 96.0947C171.157 81.7795 169.356 67.2931 164.137 53.978C161.567 47.4221 153.669 45.3542 147.57 48.875C141.472 52.3958 139.533 60.1807 141.676 66.8882C144.329 75.1894 145.142 84.0235 143.991 92.7663C142.84 101.509 139.768 109.832 135.058 117.164C131.251 123.088 131.109 131.109 136.088 136.088Z" fill="#F6D78D"/>
</svg>
