<svg width="48" height="48" viewBox="0 0 48 48" fill="none" xmlns="http://www.w3.org/2000/svg">
<path fill-rule="evenodd" clip-rule="evenodd" d="M23.0208 47.9808C10.2204 47.4672 0 36.9264 0 24C0 10.7448 10.7448 0 24 0C37.2552 0 48 10.7448 48 24C48 37.2552 37.2552 48 24 48C23.8904 48.0007 23.7808 48.0007 23.6712 48C23.454 48 23.2368 47.9928 23.0208 47.9808ZM8.5992 39.144C8.41976 38.6287 8.35868 38.0796 8.4205 37.5374C8.48232 36.9953 8.66545 36.474 8.95629 36.0123C9.24714 35.5506 9.63824 35.1604 10.1005 34.8705C10.5629 34.5807 11.0845 34.3987 11.6268 34.338C20.982 33.3024 27.0756 33.396 36.3852 34.3596C36.9282 34.4161 37.4512 34.5959 37.9142 34.8851C38.3773 35.1743 38.7682 35.5653 39.0573 36.0284C39.3464 36.4916 39.526 37.0146 39.5824 37.5576C39.6388 38.1006 39.5705 38.6493 39.3828 39.162C43.3727 35.1251 45.6072 29.6759 45.6 24C45.6 12.0708 35.9292 2.4 24 2.4C12.0708 2.4 2.4 12.0708 2.4 24C2.4 29.8992 4.7652 35.2464 8.5992 39.144Z" fill="#333333"/>
<path d="M8.5992 39.144C8.41976 38.6287 8.35868 38.0796 8.4205 37.5374C8.48232 36.9953 8.66545 36.474 8.95629 36.0123C9.24714 35.5506 9.63824 35.1604 10.1005 34.8705C10.5629 34.5807 11.0845 34.3987 11.6268 34.338C20.982 33.3024 27.0756 33.396 36.3852 34.3596C36.9282 34.4161 37.4512 34.5959 37.9142 34.8851C38.3773 35.1743 38.7682 35.5653 39.0573 36.0284C39.3464 36.4916 39.526 37.0146 39.5824 37.5576C39.6388 38.1006 39.5705 38.6493 39.3828 39.162C43.3727 35.1251 45.6072 29.6759 45.6 24C45.6 12.0708 35.9292 2.4 24 2.4C12.0708 2.4 2.4 12.0708 2.4 24C2.4 29.8992 4.7652 35.2464 8.5992 39.144Z" fill="white"/>
<path d="M33.5984 19.2001C33.5984 21.7462 32.587 24.188 30.7867 25.9883C28.9863 27.7887 26.5445 28.8001 23.9984 28.8001C21.4524 28.8001 19.0106 27.7887 17.2102 25.9883C15.4099 24.188 14.3984 21.7462 14.3984 19.2001C14.3984 16.654 15.4099 14.2122 17.2102 12.4119C19.0106 10.6115 21.4524 9.6001 23.9984 9.6001C26.5445 9.6001 28.9863 10.6115 30.7867 12.4119C32.587 14.2122 33.5984 16.654 33.5984 19.2001Z" fill="#FF74F9"/>
</svg>
