<svg width="40" height="40" viewBox="0 0 40 40" fill="none" xmlns="http://www.w3.org/2000/svg">
<path fill-rule="evenodd" clip-rule="evenodd" d="M38.0868 20.0002C39.1939 20.0002 40.1018 19.1004 39.9908 17.9989C39.5748 13.8716 37.8799 9.95677 35.1168 6.8132C31.9103 3.16511 27.4838 0.804494 22.6622 0.171153C17.8405 -0.462188 12.9526 0.674944 8.90892 3.37069C4.86528 6.06643 1.94176 10.1369 0.683062 14.8238C-0.575639 19.5107 -0.0836817 24.4943 2.06728 28.8461C4.21823 33.1979 7.88149 36.6211 12.3745 38.478C16.8676 40.3349 21.884 40.4987 26.4892 38.939C30.457 37.5952 33.8863 35.0508 36.3149 31.6846C36.9631 30.786 36.6264 29.5514 35.6663 28.9984C34.7089 28.4468 33.4951 28.7841 32.8268 29.664C30.9006 32.2002 28.2492 34.1187 25.2005 35.1513C21.5163 36.399 17.5032 36.2679 13.9088 34.7824C10.3143 33.297 7.38373 30.5584 5.66296 27.0769C3.94219 23.5955 3.54863 19.6086 4.55559 15.8591C5.56255 12.1096 7.90136 8.85319 11.1363 6.6966C14.3712 4.54 18.2816 3.6303 22.1389 4.13697C25.9962 4.64364 29.5374 6.53214 32.1026 9.45061C34.224 11.8641 35.5583 14.8459 35.9566 18.0008C36.0952 19.0992 36.9797 20.0002 38.0868 20.0002ZM20.0412 31.6878C20.0412 32.8269 20.9697 33.7661 22.0961 33.5967C24.0918 33.2964 26.0058 32.5611 27.6978 31.4331C29.9641 29.9222 31.7305 27.7747 32.7736 25.2622C33.8167 22.7497 34.0896 19.985 33.5578 17.3177C33.0261 14.6505 31.7135 12.2004 29.7862 10.2774C27.8588 8.35444 25.4032 7.04487 22.7299 6.51431C20.0565 5.98376 17.2856 6.25606 14.7673 7.29677C12.2491 8.33749 10.0968 10.0999 8.58243 12.3611C7.4536 14.0467 6.71711 15.953 6.41529 17.9408C6.24391 19.0696 7.18537 20.0002 8.32706 20.0002C9.46875 20.0002 10.372 19.0643 10.6159 17.9489C10.8719 16.7781 11.3461 15.6593 12.0201 14.6528C13.0801 13.07 14.5868 11.8363 16.3495 11.1078C18.1123 10.3793 20.0519 10.1887 21.9233 10.5601C23.7946 10.9315 25.5135 11.8482 26.8627 13.1943C28.2118 14.5404 29.1306 16.2554 29.5029 18.1225C29.8751 19.9896 29.684 21.9248 28.9539 23.6836C28.2237 25.4424 26.9873 26.9456 25.4008 28.0032C24.3895 28.6774 23.2649 29.1512 22.0882 29.4062C20.9749 29.6473 20.0412 30.5487 20.0412 31.6878ZM20.0466 27.5003C24.1982 27.5003 27.5637 24.1424 27.5637 20.0002C27.5637 15.8581 24.1982 12.5002 20.0466 12.5002C15.895 12.5002 12.5294 15.8581 12.5294 20.0002C12.5294 24.1424 15.895 27.5003 20.0466 27.5003ZM20.0466 23.7503C17.9708 23.7503 16.288 22.0713 16.288 20.0002C16.288 17.9292 17.9708 16.2502 20.0466 16.2502C22.1224 16.2502 23.8051 17.9292 23.8051 20.0002C23.8051 22.0713 22.1224 23.7503 20.0466 23.7503Z" fill="white"/>
</svg>
