<svg width="21" height="20" viewBox="0 0 21 20" fill="none" xmlns="http://www.w3.org/2000/svg">
<rect x="0.335938" width="20" height="20" rx="4" fill="#EAC875"/>
<path d="M15.072 6.43918C15.396 6.11514 15.396 5.58891 15.072 5.26488C14.748 4.94084 14.2217 4.94084 13.8977 5.26488L5.6024 13.5602C5.27837 13.8842 5.27837 14.4104 5.6024 14.7345C5.92644 15.0585 6.45267 15.0585 6.7767 14.7345L15.072 6.43918ZM8.67944 6.68285C8.67944 6.24284 8.50464 5.82086 8.19351 5.50972C7.88238 5.19859 7.46039 5.02379 7.02038 5.02379C6.58037 5.02379 6.15838 5.19859 5.84725 5.50972C5.53611 5.82086 5.36132 6.24284 5.36132 6.68285C5.36132 7.12286 5.53611 7.54485 5.84725 7.85599C6.15838 8.16712 6.58037 8.34191 7.02038 8.34191C7.46039 8.34191 7.88238 8.16712 8.19351 7.85599C8.50464 7.54485 8.67944 7.12286 8.67944 6.68285ZM15.3157 13.3191C15.3157 12.8791 15.1409 12.4571 14.8297 12.146C14.5186 11.8348 14.0966 11.66 13.6566 11.66C13.2166 11.66 12.7946 11.8348 12.4835 12.146C12.1723 12.4571 11.9976 12.8791 11.9976 13.3191C11.9976 13.7591 12.1723 14.1811 12.4835 14.4922C12.7946 14.8034 13.2166 14.9781 13.6566 14.9781C14.0966 14.9781 14.5186 14.8034 14.8297 14.4922C15.1409 14.1811 15.3157 13.7591 15.3157 13.3191Z" fill="#BC9126"/>
</svg>
