<svg width="28" height="29" viewBox="0 0 28 29" fill="none" xmlns="http://www.w3.org/2000/svg">
<path d="M24.5002 25L19.4334 19.9332M19.4334 19.9332C20.3001 19.0665 20.9876 18.0375 21.4567 16.9051C21.9257 15.7727 22.1671 14.559 22.1671 13.3333C22.1671 12.1076 21.9257 10.8939 21.4567 9.76153C20.9876 8.62912 20.3001 7.6002 19.4334 6.7335C18.5667 5.86679 17.5378 5.17929 16.4054 4.71023C15.273 4.24118 14.0593 3.99976 12.8336 3.99976C11.6079 3.99976 10.3942 4.24118 9.26177 4.71023C8.12937 5.17929 7.10044 5.86679 6.23374 6.7335C4.48336 8.48388 3.5 10.8579 3.5 13.3333C3.5 15.8087 4.48336 18.1828 6.23374 19.9332C7.98412 21.6835 10.3582 22.6669 12.8336 22.6669C15.309 22.6669 17.683 21.6835 19.4334 19.9332Z" stroke="#98A2AE" stroke-width="1.5" stroke-linecap="round" stroke-linejoin="round"/>
</svg>
