<svg width="24" height="24" viewBox="0 0 24 24" fill="none" xmlns="http://www.w3.org/2000/svg">
<path d="M17.8342 2.79199H6.65265C5.62342 2.79199 4.78906 3.62635 4.78906 4.65558V18.7924C4.78906 19.2866 4.98541 19.7607 5.3349 20.1101L5.56965 20.3449C6.16778 20.943 7.13753 20.943 7.73566 20.3449C8.20182 19.8787 8.91397 19.7632 9.50362 20.058L11.41 21.0112C11.9347 21.2735 12.5522 21.2735 13.0769 21.0112L15.1372 19.981C15.6618 19.7187 16.2794 19.7187 16.804 19.981L17.0008 20.0794C18.2399 20.699 19.6978 19.7979 19.6978 18.4126V4.65558C19.6978 3.62635 18.8634 2.79199 17.8342 2.79199Z" stroke="#ADB5BD" stroke-width="1.7" stroke-linecap="round"/>
<path d="M10.1797 11.0449L10.6909 11.5561C10.9732 11.8384 11.431 11.8384 11.7133 11.5561L14.2694 9" stroke="#ADB5BD" stroke-width="1.7" stroke-linecap="round"/>
<path d="M8.51562 15.8372H15.97" stroke="#ADB5BD" stroke-width="1.7" stroke-linecap="round"/>
</svg>
