<svg width="436" height="40" viewBox="0 0 436 40" fill="none" xmlns="http://www.w3.org/2000/svg">
<path d="M2 11.7648L5 10.1513C8 8.53785 14 5.31092 20 8.25169C26 11.1925 32 20.3009 38 24.6846C44 29.0682 50 28.727 56 24.1806C62 19.6343 68 10.8827 74 7.45043C80 4.01812 86 5.90503 92 5.35026C98 4.7955 104 1.79905 110 6.41634C116 11.0336 122 23.2646 128 23.5094C134 23.7542 140 12.0128 146 6.2688C152 0.524762 158 0.778084 164 5.82517C170 10.8723 176 20.7131 182 27.5849C188 34.4566 194 38.3592 200 33.3508C206 28.3423 212 14.4227 218 9.08333C224 3.74394 230 6.98472 236 9.45112C242 11.9175 248 13.6095 254 19.1052C260 24.601 266 33.9005 272 36.8848C278 39.8692 284 36.5385 290 30.7528C296 24.9671 302 16.7263 308 17.0162C314 17.306 320 26.1264 326 28.0119C332 29.8975 338 24.8482 344 20.2304C350 15.6127 356 11.4265 362 12.6618C368 13.897 374 20.5538 380 23.4074C386 26.261 392 25.3115 398 25.2333C404 25.1551 410 25.9482 416 26.958C422 27.9677 428 29.1939 431 29.807L434 30.4202" stroke="#E1BA58" stroke-width="4" stroke-linecap="round"/>
</svg>
